<svg xmlns="http://www.w3.org/2000/svg" viewBox="0 0 32 32" width="32" height="32">
  <rect width="32" height="32" rx="6" fill="#fff"/>
  <rect x="0.5" y="0.5" width="31" height="31" rx="5.5" fill="none" stroke="#e5e7eb"/>
  <g transform="translate(4,3) scale(1.05)">
    <path d="M3.955 9.864L9.47 5.636a.25.25 0 01.372.091l3.03 5.727a.5.5 0 01-.17.635l-5.79 4.143a.25.25 0 01-.394-.145L3.78 10.22a.5.5 0 01.175-.356z" fill="#00D6B9"/>
    <path d="M7.33 17.23l5.79-4.143a.5.5 0 00.17-.635L10.258 5.724l8.156 2.37a.5.5 0 01.297.235l3.26 5.84a.25.25 0 01-.135.355l-3.51 1.404a.5.5 0 00-.297.295l-1.216 3.383a.25.25 0 01-.364.134L7.33 17.23z" fill="#3370FF"/>
    <path d="M16.45 19.74l1.216-3.383a.5.5 0 01.297-.295l3.51-1.404a.25.25 0 00.135-.355l-1.1-1.97 2.146.624a.5.5 0 01.346.38l.724 3.99a.25.25 0 01-.117.262l-7.007 4.372a.25.25 0 01-.38-.181l-.125-.767a.5.5 0 00-.02-.08l-.56-1.537a.25.25 0 01-.064-.156z" fill="#133C9A"/>
  </g>
</svg>
