<svg xmlns="http://www.w3.org/2000/svg" viewBox="0 0 48 48"><path d="M7.876 7.004c-.37-.188-.84.14-.704.543l5.898 17.493a1 1 0 0 0 .606.62L30.5 31.5l-9.046 6.972a1 1 0 0 1-.453.185l-12.4 1.92c-.508.079-.83-.53-.509-.912L19.5 26l-6.244-2.094a1 1 0 0 1-.606-.62L7.876 7.004z" fill="#3370FF"/><path d="M30.5 31.5L13.676 25.66a1 1 0 0 1-.606-.62l-1.286-3.814L40.124 7.004c.37-.188.84.14.704.543l-5.898 17.493a1 1 0 0 1-.606.62L30.5 31.5z" fill="#00D6B9"/><path d="M30.5 31.5l3.824-5.86a1 1 0 0 0 .106-.68l-.853-3.75L19.5 26l-11.4 13.577c-.32.382.002.991.51.912l12.39-1.912a1 1 0 0 0 .454-.185L30.5 31.5z" fill="#133C9A"/></svg>
