<svg xmlns="http://www.w3.org/2000/svg" viewBox="0 0 48 48"><path fill="#0082EF" d="M20.4 6C12 6 5 12.3 5 20c0 4.4 2.3 8.3 5.9 10.8l-1 4.8c-.2.8.6 1.5 1.3 1.1l6.3-3.1c1 .2 2 .4 3 .4.6 0 1.2 0 1.8-.1-.4-1.3-.7-2.7-.7-4.1 0-7.4 6.5-13.4 14.4-13.4.4 0 .8 0 1.2.1C36 9.7 28.8 6 20.4 6zm-5.2 10.5a2.2 2.2 0 1 1 0 4.4 2.2 2.2 0 0 1 0-4.4zm10.6 0a2.2 2.2 0 1 1 0 4.4 2.2 2.2 0 0 1 0-4.4z"/><path fill="#0082EF" d="M43 29.8c0-5.7-5.4-10.4-12-10.4S19 24 19 29.8s5.4 10.4 12 10.4c1.3 0 2.6-.2 3.8-.6l4.8 2.5c.7.3 1.4-.4 1.2-1.1l-.8-3.6C42 35.8 43 33 43 29.8zm-16-1.3a1.8 1.8 0 1 1 0 3.6 1.8 1.8 0 0 1 0-3.6zm8 0a1.8 1.8 0 1 1 0 3.6 1.8 1.8 0 0 1 0-3.6z"/></svg>
